<svg xmlns="http://www.w3.org/2000/svg" xmlns:xlink="http://www.w3.org/1999/xlink" version="1.1" x="0px" y="0px" viewBox="0 0 100 125" enable-background="new 0 0 100 100" xml:space="preserve"><path d="M68.414,67.685c1.558-2.959,2.375-6.23,2.366-9.638c0-0.229-0.011-0.471-0.022-0.728c-0.131-2.425-0.94-5.41-2.475-9.126  l-0.146-0.418l-0.056-0.051c-1-2.355-2.216-4.836-3.525-7.355l12.37-12.37c0.781-0.781,0.781-2.047,0-2.828s-2.047-0.781-2.828,0  L62.595,36.675c-0.651-1.204-1.31-2.408-1.963-3.603c-3.42-6.249-6.649-12.151-7.883-16.438c-0.365-1.25-1.041-2.911-2.671-2.911  c-0.994,0-1.832,0.7-2.042,1.718c-0.828,4.227-4.384,10.38-8.148,16.896c-0.83,1.436-1.667,2.885-2.487,4.334L25.902,25.173  c-0.782-0.781-2.048-0.781-2.828,0c-0.781,0.781-0.781,2.047,0,2.828l12.314,12.314c-1.649,3.067-3.142,6.101-4.242,8.992  c-2.81,6.041-2.516,12.804,0.426,18.39l-8.499,8.498c-0.781,0.781-0.781,2.047,0,2.828c0.391,0.391,0.902,0.586,1.414,0.586  s1.023-0.195,1.414-0.586l7.932-7.932c0.971,1.195,2.073,2.31,3.33,3.298c3.695,2.906,8.13,4.442,12.825,4.442  c6.335,0,12.215-2.817,16.183-7.733l7.925,7.925c0.391,0.391,0.902,0.586,1.414,0.586s1.023-0.195,1.414-0.586  c0.781-0.781,0.781-2.047,0-2.828L68.414,67.685z M64.562,49.671l0.124,0.359l0.052,0.06c1.261,3.114,1.924,5.552,2.025,7.431  c0.008,0.179,0.018,0.356,0.018,0.531c0.005,2.319-0.462,4.561-1.36,6.639L52.828,52.098l8.757-8.757  C62.7,45.527,63.726,47.663,64.562,49.671z M43.351,34.338c2.653-4.592,5.208-9.012,6.883-12.895  c1.673,4.017,4.226,8.682,6.89,13.55c0.841,1.537,1.688,3.09,2.518,4.636L50,49.27l-9.66-9.66  C41.325,37.852,42.341,36.086,43.351,34.338z M34.801,50.937l0.06-0.142c0.906-2.391,2.124-4.929,3.487-7.521l8.824,8.824  l-6.413,6.414c-0.109-2.157,0.521-4.361,1.958-6.188c0.683-0.869,0.532-2.126-0.336-2.809c-0.87-0.682-2.125-0.533-2.809,0.336  c-2.19,2.787-3.164,6.259-2.742,9.778c0.095,0.794,0.268,1.565,0.496,2.315l-2.749,2.749C32.718,60.405,32.694,55.422,34.801,50.937  z M63.198,68.421c-3.204,4.074-8.02,6.411-13.209,6.411c-3.79,0-7.369-1.24-10.353-3.587c-1.132-0.89-2.12-1.898-2.963-2.993  l2.514-2.514c0.728,1.021,1.602,1.946,2.614,2.743c0.367,0.288,0.803,0.428,1.236,0.428c0.592,0,1.179-0.262,1.573-0.764  c0.683-0.869,0.532-2.126-0.336-2.809c-0.904-0.711-1.631-1.562-2.193-2.493L50,54.926l13.323,13.323  C63.279,68.306,63.242,68.365,63.198,68.421z"/></svg>