<svg xmlns="http://www.w3.org/2000/svg" xmlns:xlink="http://www.w3.org/1999/xlink" version="1.1" x="0px" y="0px" viewBox="0 0 26.041 36.04125" enable-background="new 0 0 26.041 28.833" xml:space="preserve"><g><g><path d="M20.899,26.414c-0.539,0.539-1.479,0.539-2.02,0c-1.336-1.336-3.511-1.336-4.85,0c-0.541,0.541-1.479,0.541-2.02,0    c-1.337-1.334-3.512-1.338-4.851,0.002c-0.532,0.533-1.48,0.537-2.019-0.002c-1.338-1.336-3.512-1.336-4.85,0    c-0.391,0.391-0.391,1.023,0,1.414s1.023,0.391,1.414,0c0.557-0.557,1.465-0.557,2.021,0c0.639,0.639,1.521,1.006,2.424,1.006    c0.917,0,1.777-0.357,2.424-1.006c0.557-0.557,1.465-0.557,2.021,0c0.647,0.646,1.508,1.006,2.424,1.006    c0.916,0,1.776-0.357,2.423-1.006c0.557-0.557,1.463-0.559,2.021,0c1.295,1.295,3.553,1.295,4.848,0    c0.557-0.557,1.463-0.559,2.021,0c0.391,0.391,1.023,0.391,1.414,0s0.391-1.023,0-1.414    C24.413,25.078,22.237,25.078,20.899,26.414z"/><path d="M20.899,21.837c-0.539,0.539-1.479,0.539-2.02,0c-1.336-1.336-3.511-1.336-4.85,0c-0.541,0.541-1.479,0.541-2.02,0    c-1.337-1.336-3.512-1.338-4.851,0c-0.532,0.535-1.48,0.537-2.019,0c-1.338-1.336-3.512-1.336-4.85,0    c-0.391,0.391-0.391,1.023,0,1.414s1.023,0.391,1.414,0c0.557-0.557,1.465-0.557,2.021,0c0.639,0.639,1.521,1.004,2.424,1.004    c0.917,0,1.777-0.355,2.424-1.004c0.557-0.557,1.465-0.557,2.021,0c0.647,0.646,1.508,1.004,2.424,1.004    c0.916,0,1.776-0.355,2.423-1.004c0.557-0.557,1.463-0.559,2.021,0c1.336,1.336,3.512,1.336,4.848,0    c0.557-0.557,1.463-0.559,2.021,0c0.391,0.391,1.023,0.391,1.414,0s0.391-1.023,0-1.414    C24.413,20.501,22.237,20.501,20.899,21.837z"/><path d="M1.708,18.828c0.557-0.557,1.465-0.557,2.021,0c0.639,0.639,1.521,1.006,2.424,1.006c0.917,0,1.777-0.357,2.424-1.006    c0.557-0.557,1.465-0.557,2.021,0c0.647,0.646,1.508,1.006,2.424,1.006c0.917,0,1.776-0.357,2.424-1.006    c0.556-0.557,1.463-0.557,2.021,0c1.296,1.295,3.554,1.295,4.849,0c0.556-0.557,1.463-0.557,2.021,0    c0.392,0.391,1.022,0.391,1.414,0s0.392-1.023,0-1.414c-1.336-1.336-3.511-1.336-4.849,0c-0.539,0.539-1.48,0.539-2.021,0    c-1.336-1.336-3.511-1.336-4.849,0c-0.541,0.541-1.479,0.541-2.02,0c-1.337-1.334-3.512-1.338-4.851,0.002    c-0.532,0.533-1.48,0.537-2.019-0.002c-1.338-1.336-3.512-1.336-4.85,0c-0.391,0.391-0.391,1.023,0,1.414    S1.317,19.218,1.708,18.828z"/><path d="M6.269,12.376c0.203,0.314,0.469,0.465,0.735,0.453c0.002,0,0.005,0,0.005,0v0.002c0.019,0,0.019,0,0.024,0    c0.267,0.012,0.537-0.139,0.74-0.453l3.872-5.965c0.394-0.607,0.12-1.104-0.604-1.105c0,0-1.179,0-1.181-0.002    c0,0-0.816,0.123-0.816-0.965c0-0.018,0-3.172,0-3.172C9.044,0.341,9.117,0,8.287,0H5.754C4.924,0,5.01,0.234,5.01,1.064    c0,0,0,3.26,0,3.275c0,1.088-0.822,0.967-0.822,0.967c-0.002,0-1.187,0.002-1.187,0.002c-0.724,0-0.998,0.498-0.604,1.104    L6.269,12.376z"/><path d="M15.002,7.527c0,0,1.185,0.002,1.187,0.002c0,0,0.822-0.121,0.822,0.965c0,0.018,0,3.277,0,3.277    c0,0.828-0.086,1.063,0.744,1.063h2.533c0.83,0,0.757-0.342,0.757-1.17c0,0,0-3.154,0-3.172c0-1.086,0.815-0.965,0.815-0.965    c0.002,0,1.182-0.002,1.182-0.002c0.725-0.002,0.997-0.498,0.604-1.105l-3.871-5.965c-0.203-0.313-0.475-0.465-0.74-0.453    c-0.006,0-0.006,0-0.024,0v0.002c0,0-0.003,0-0.005,0c-0.268-0.012-0.531,0.139-0.734,0.453l-3.871,5.965    C14.004,7.029,14.278,7.527,15.002,7.527z"/></g></g><text x="0" y="43.833" fill="#000000" font-size="5px" font-weight="bold" font-family="'Helvetica Neue', Helvetica, Arial-Unicode, Arial, Sans-serif">Created by Baboon designs</text><text x="0" y="48.833" fill="#000000" font-size="5px" font-weight="bold" font-family="'Helvetica Neue', Helvetica, Arial-Unicode, Arial, Sans-serif">from the Noun Project</text></svg>