<svg xmlns="http://www.w3.org/2000/svg" xmlns:xlink="http://www.w3.org/1999/xlink" version="1.1" enable-background="new 0 0 100 100" xml:space="preserve" width="31" height="18" style=""><rect id="backgroundrect" width="100%" height="100%" x="0" y="0" fill="none" stroke="none" style="" class=""/><g class="currentLayer" style=""><title>Layer 1</title><g class=""><g id="svg_31" class=""><path d="M23.97746775013843,8.412532186194937 H11.347863861749204 c-0.05182838909468801,0 -0.09389201674656844,-0.04672892521607763 -0.09389201674656844,-0.10430563263257042 s0.04206362477034031,-0.10430563263257042 0.09389201674656844,-0.10430563263257042 h12.629601675366416 c0.05182838909468801,0 0.09389201674656844,0.04672892521607763 0.09389201674656844,0.10430563263257042 S24.029296744356543,8.412532186194937 23.97746775013843,8.412532186194937 z" id="svg_32"/></g><g id="svg_29" class=""><path d="M23.97746775013843,6.400267061403326 H11.347863861749204 c-0.05182838909468801,0 -0.09389201674656844,-0.04672892521607763 -0.09389201674656844,-0.10430563263257042 s0.04206362477034031,-0.10430563263257042 0.09389201674656844,-0.10430563263257042 h12.629601675366416 c0.05182838909468801,0 0.09389201674656844,0.04672892521607763 0.09389201674656844,0.10430563263257042 S24.029296744356543,6.400267061403326 23.97746775013843,6.400267061403326 z" id="svg_30"/></g><g id="svg_27" class=""><path d="M23.97746775013843,4.388837418383389 H11.347863861749204 c-0.05182838909468801,0 -0.09389201674656844,-0.04672892521607763 -0.09389201674656844,-0.10430563263257042 s0.04206362477034031,-0.10430563263257042 0.09389201674656844,-0.10430563263257042 h12.629601675366416 c0.05182838909468801,0 0.09389201674656844,0.04672892521607763 0.09389201674656844,0.10430563263257042 S24.029296744356543,4.388837418383389 23.97746775013843,4.388837418383389 z" id="svg_28"/></g><g id="svg_25" class=""><path d="M23.97746775013843,2.377407957306346 H11.347863861749204 c-0.05182838909468801,0 -0.09389201674656844,-0.04672892521607763 -0.09389201674656844,-0.10430563263257042 s0.04206362477034031,-0.10430563263257042 0.09389201674656844,-0.10430563263257042 h12.629601675366416 c0.05182838909468801,0 0.09389201674656844,0.04672892521607763 0.09389201674656844,0.10430563263257042 S24.029296744356543,2.377407957306346 23.97746775013843,2.377407957306346 z" id="svg_26"/></g><g id="svg_23" class=""><path d="M3.662989085439932,6.905941675937186 h-0.35603853257449813 c-0.05182838909468801,0 -0.09389201674656844,-0.04672892521607763 -0.09389201674656844,-0.10430563263257042 s0.04206362477034031,-0.10430563263257042 0.09389201674656844,-0.10430563263257042 h0.35603853257449813 c0.05182838909468801,0 0.09389201674656844,0.04672892521607763 0.09389201674656844,0.10430563263257042 S3.7148177108209097,6.905941675937186 3.662989085439932,6.905941675937186 z" id="svg_24"/></g><g id="svg_21" class=""><path d="M5.610687058489361,6.905941675937186 h-1.451570624430282 c-0.05182838909468801,0 -0.09389201674656844,-0.04672892521607763 -0.09389201674656844,-0.10430563263257042 s0.04206362477034031,-0.10430563263257042 0.09389201674656844,-0.10430563263257042 h1.35767852123751 v-0.5085942521623537 c0,-0.057576710259350516 0.04206362477034031,-0.10430563263257042 0.09389201674656844,-0.10430563263257042 h0.3924686225086518 c0.05182838909468801,0 0.09389201674656844,0.04672892521607763 0.09389201674656844,0.10430563263257042 s-0.04206362477034031,0.10430563263257042 -0.09389201674656844,0.10430563263257042 h-0.29857661152516357 v0.5085942521623537 C5.704578977263566,6.859212918449714 5.662514208521799,6.905941675937186 5.610687058489361,6.905941675937186 z" id="svg_22"/></g><g id="svg_19" class=""><path d="M6.599931122612759,9.26074559385603 h-1.4572041506218483 c-0.07774259228665237,0 -0.14083802800139278,-0.07009338640268759 -0.14083802800139278,-0.15645844894885563 v-0.45644145858893026 H1.786651692676955 c-0.07774259228665237,0 -0.14083802800139278,-0.06967616291695711 -0.14083802800139278,-0.15645844894885563 v-2.159126700111372 c0,-0.08636506254616805 0.06309543571474041,-0.15645844894885563 0.14083802800139278,-0.15645844894885563 h3.215238138826919 v-0.45644145858893026 c0,-0.08636506254616805 0.06309543571474041,-0.15645844894885563 0.14083802800139278,-0.15645844894885563 h1.4572041506218483 c0.07774259228665237,0 0.14083802800139278,0.07009338640268759 0.14083802800139278,0.15645844894885563 v3.3845093656155143 C6.7407693696112005,9.190651002081665 6.677674613939928,9.26074559385603 6.599931122612759,9.26074559385603 zM5.283566509919325,8.947828559501147 h1.1755281176713837 v-3.071592331260632 h-1.1755281176713837 v0.45644145858893026 c0,0.08636506254616805 -0.06309543571474041,0.15645844894885563 -0.14083802800139278,0.15645844894885563 h-3.215238138826919 v1.8462098476993845 h3.215238138826919 c0.07774259228665237,0 0.14083802800139278,0.07009338640268759 0.14083802800139278,0.15645844894885563 V8.947828559501147 z" id="svg_20"/></g><g id="svg_17" class=""><path d="M8.667810618911801,13.516412457790011 h-0.9107525710863342 c-0.3545362589234138,0 -0.642972523303758,-0.320844127069444 -0.642972523303758,-0.7151194056845576 V2.046133794608039 c0,-0.3942753013579754 0.28843628743266514,-0.7147022106274044 0.642972523303758,-0.7147022106274044 h0.9107525710863342 c0.07774259228665237,0 0.14083802800139278,0.07009338640268759 0.14083802800139278,0.15645844894885563 v11.87206715991232 C8.808648865910243,13.446319321558803 8.7455533725647,13.516412457790011 8.667810618911801,13.516412457790011 zM7.757057310151197,1.6443480270211097 c-0.19942664276288014,0 -0.36129649035329336,0.1802401364640538 -0.36129649035329336,0.4017853127296931 v10.755162668926687 c0,0.2215451762656393 0.16224540447702385,0.4022025077868463 0.36129649035329336,0.4022025077868463 h0.76991450850646 V1.6443480270211097 H7.757057310151197 z" id="svg_18"/></g><g id="svg_15" class=""><path d="M21.867902280835324,16.362290436842613 h-0.4980032542880437 c-0.05182838909468801,0 -0.09389201674656844,-0.04672892521607763 -0.09389201674656844,-0.10430563263257042 s0.04206362477034031,-0.10430563263257042 0.09389201674656844,-0.10430563263257042 h0.4980032542880437 c0.05182838909468801,0 0.09389201674656844,0.04672892521607763 0.09389201674656844,0.10430563263257042 S21.919731275053437,16.362290436842613 21.867902280835324,16.362290436842613 z" id="svg_16"/></g><g id="svg_13" class=""><path d="M24.771042976440185,16.81539374365991 c-0.05182838909468801,0 -0.09389201674656844,-0.04672892521607763 -0.09389201674656844,-0.10430563263257042 v-0.348798038070516 h-2.343169022046723 c-0.05182838909468801,0 -0.09389201674656844,-0.04672892521607763 -0.09389201674656844,-0.10430563263257042 s0.04206362477034031,-0.10430563263257042 0.09389201674656844,-0.10430563263257042 h2.437061125239495 c0.05182838909468801,0 0.09389201674656844,0.04672892521607763 0.09389201674656844,0.10430563263257042 v0.45310367070308644 C24.86493415754012,16.76866498617244 24.822494281432,16.81539374365991 24.771042976440185,16.81539374365991 z" id="svg_14"/></g><g id="svg_11" class=""><path d="M26.16139668726305,17.981529798590145 H10.597103250084785 c-0.07774259228665237,0 -0.14083802800139278,-0.07009338640268759 -0.14083802800139278,-0.15645844894885563 v-0.7226294170562753 c0,-0.39385806081509855 0.28843628743266514,-0.7147022106274044 0.642972523303758,-0.7147022106274044 h0.10741247384324737 v-0.7209605458562152 c0,-0.08636506254616805 0.06309543571474041,-0.15645844894885563 0.14083802800139278,-0.15645844894885563 h13.955358725704059 c0.07774259228665237,0 0.14083802800139278,0.07009338640268759 0.14083802800139278,0.15645844894885563 v0.7209605458562152 h0.21482494768649474 c0.3545362589234138,0 0.643348137821171,0.320844127069444 0.643348137821171,0.7147022106274044 v0.7226294170562753 C26.30223345891295,17.911436662358938 26.23913870324168,17.981529798590145 26.16139668726305,17.981529798590145 zM10.737940759408957,17.668612764235263 h15.282241466977894 v-0.5661709908502814 c0,-0.2215451762656393 -0.16224540447702385,-0.4017853127296931 -0.36167205876606445,-0.4017853127296931 h-0.35566296416172705 c-0.07774259228665237,0 -0.14083802800139278,-0.07009338640268759 -0.14083802800139278,-0.15645844894885563 v-0.7209605458562152 H11.488701371073375 v0.7209605458562152 c0,0.08636506254616805 -0.06309543571474041,0.15645844894885563 -0.14083802800139278,0.15645844894885563 h-0.24825049031847968 c-0.19942664276288014,0 -0.36129649035329336,0.1802401364640538 -0.36129649035329336,0.4017853127296931 V17.668612764235263 z" id="svg_12"/></g><g id="svg_9" class=""><path d="M30.5645567013828,6.784529726875348 c-0.05182838909468801,0 -0.09389201674656844,-0.04672892521607763 -0.09389201674656844,-0.10430563263257042 V2.3886731335639553 c0,-0.8477962126039387 -0.6208140330549057,-1.537464945858929 -1.3839683101314861,-1.537464945858929 h-0.4566907749878659 c-0.05182838909468801,0 -0.09389201674656844,-0.04672892521607763 -0.09389201674656844,-0.10430563263257042 s0.04206362477034031,-0.10430563263257042 0.09389201674656844,-0.10430563263257042 h0.4566907749878659 c0.8668111590014007,0 1.5717524243077463,0.78312670308717 1.5717524243077463,1.746076302095517 v4.291551097135994 C30.658447882482733,6.737800969387877 30.61638569560091,6.784529726875348 30.5645567013828,6.784529726875348 z" id="svg_10"/></g><g id="svg_7" class=""><path d="M30.5645567013828,8.453419848996475 c-0.05182838909468801,0 -0.09389201674656844,-0.04672892521607763 -0.09389201674656844,-0.10430563263257042 v-0.9387507391788574 c0,-0.057576710259350516 0.04206362477034031,-0.10430563263257042 0.09389201674656844,-0.10430563263257042 s0.09389201674656844,0.04672892521607763 0.09389201674656844,0.10430563263257042 v0.9387507391788574 C30.658447882482733,8.406691091509003 30.61638569560091,8.453419848996475 30.5645567013828,8.453419848996475 z" id="svg_8"/></g><g id="svg_5" class=""><path d="M29.08707185647131,14.782684059695953 h-2.779203672646105 c-0.07774259228665237,0 -0.14083802800139278,-0.07009338640268759 -0.14083802800139278,-0.15645844894885563 V0.1556976774782477 c0,-0.08636506254616805 0.06309543571474041,-0.15645844894885563 0.14083802800139278,-0.15645844894885563 h2.779203672646105 c1.1856683726069193,0 2.1508783635450612,1.0718446956696681 2.1508783635450612,2.389850667977342 v10.00457909069786 C31.237575297068588,13.71083954596918 30.272738661520407,14.782684059695953 29.08707185647131,14.782684059695953 zM26.448331323457296,14.46976702534107 h2.6383657944847982 c1.0305588025510275,0 1.8692024228038804,-0.9312407732928634 1.8692024228038804,-2.076516620508201 V2.3886731335639553 c0,-1.1452757562438904 -0.838267959630798,-2.0769338155653543 -1.8692024228038804,-2.0769338155653543 h-2.6383657944847982 V14.46976702534107 z" id="svg_6"/></g><g id="svg_3" class=""><path d="M25.601796985955616,14.782684059695953 H10.339838610708739 c-0.6317055170252672,0 -1.1458582130624677,-0.5707604548790322 -1.1458582130624677,-1.272945995048815 V1.2721846550066616 c0,-0.7017682996269059 0.5141526499325586,-1.272945995048815 1.1458582130624677,-1.272945995048815 h15.2615851120662 c0.07774259228665237,0 0.14083802800139278,0.07009338640268759 0.14083802800139278,0.15645844894885563 V14.62622627029009 C25.742636708302598,14.712590923464745 25.679541952631325,14.782684059695953 25.601796985955616,14.782684059695953 zM10.339838610708739,0.31215612642710333 c-0.4765959008647336,0 -0.8641821801120031,0.43057363658793335 -0.8641821801120031,0.96002905166538 v12.237971059554866 c0,0.5294554150774466 0.38758623314262763,0.96002905166538 0.8641821801120031,0.96002905166538 h15.120746865067758 V0.31215612642710333 H10.339838610708739 z" id="svg_4"/></g><g id="svg_1" class=""><path d="M1.3434813344442063,13.866464764689681 c-0.7406202184149571,0 -1.3430313531394376,-0.7226294170562753 -1.3430313531394376,-1.6108961883760458 c0,-0.8402861557464973 1.1744014124330704,-2.884259378482014 1.2247273953258286,-2.9706243955424583 c0.05182838909468801,-0.08970284474629642 0.18515505460373927,-0.08970284474629642 0.23698343793534704,0 c0.049950552793912806,0.08636506254616805 1.2247273953258286,2.130338239795961 1.2247273953258286,2.9706243955424583 C2.686888163787131,13.143416424118755 2.084101691173089,13.866464764689681 1.3434813344442063,13.866464764689681 zM1.3434813344442063,9.66336556961437 c-0.37857261428844247,0.6846621651405336 -1.061355320188973,2.035211398763721 -1.061355320188973,2.591786357470795 c0,0.7159538412845876 0.4762203324519625,1.2979793359640581 1.061355320188973,1.2979793359640581 s1.061730888601744,-0.5824426442509001 1.061730888601744,-1.2979793359640581 C2.4052122230459503,11.698159591378044 1.7220537412617603,10.348026870526155 1.3434813344442063,9.66336556961437 z" id="svg_2"/></g><g id="svg_37" class=""><path d="M1.4948352203723871,13.274009211638486 c-0.04093691953202705,0 -0.07811816069942346,-0.029622799258278487 -0.09013633261885756,-0.07551727466003744 c-0.01427158671837081,-0.05549059851641358 0.014647155131141898,-0.1130673087757641 0.06422214095305367,-0.12933898491924456 c0.20130448482673557,-0.0642522689738918 0.3436447980053732,-0.18566402472140364 0.4232651862512391,-0.36006303238523074 c0.17651699263616472,-0.3880169661291646 0.0026289765481462696,-0.9220618452353619 0.0007511361501812107,-0.9274857448641427 c-0.01802726796454157,-0.05423892805922215 0.006760224946414317,-0.11390175574722505 0.0552085048096278,-0.13392843757656436 c0.04919941596837063,-0.020443903893640925 0.10253008447722323,0.007927227750303856 0.12055735676407497,0.06133171025949391 c0.00826249715672861,0.025450575772404616 0.2039334637161332,0.6233304435096088 -0.009013633982270786,1.0927058130990375 c-0.10403235812830758,0.22947240543737202 -0.2854317170781755,0.3867652899862577 -0.5393157335882215,0.4677064983893686 C1.5117351534820997,13.27275453343782 1.5034728328197033,13.274009211638486 1.4948352203723871,13.274009211638486 z" id="svg_38"/></g><g id="svg_35" class=""><path d="M23.97746775013843,12.435390744463234 H11.347863861749204 c-0.05182838909468801,0 -0.09389201674656844,-0.04672892521607763 -0.09389201674656844,-0.10430563263257042 s0.04206362477034031,-0.10430563263257042 0.09389201674656844,-0.10430563263257042 h12.629601675366416 c0.05182838909468801,0 0.09389201674656844,0.04672892521607763 0.09389201674656844,0.10430563263257042 S24.029296744356543,12.435390744463234 23.97746775013843,12.435390744463234 z" id="svg_36"/></g><g id="svg_33" class=""><path d="M23.97746775013843,10.424378114557555 H11.347863861749204 c-0.05182838909468801,0 -0.09389201674656844,-0.04672892521607763 -0.09389201674656844,-0.10430563263257042 s0.04206362477034031,-0.10430563263257042 0.09389201674656844,-0.10430563263257042 h12.629601675366416 c0.05182838909468801,0 0.09389201674656844,0.04672892521607763 0.09389201674656844,0.10430563263257042 S24.029296744356543,10.424378114557555 23.97746775013843,10.424378114557555 z" id="svg_34"/></g></g></g></svg>