<svg xmlns="http://www.w3.org/2000/svg" xmlns:xlink="http://www.w3.org/1999/xlink" version="1.1" x="0px" y="0px" viewBox="0 0 100 125" enable-background="new 0 0 100 100" xml:space="preserve"><g><path d="M11.72,63.099c-1.972,0-3.576-1.732-3.576-3.861c0-2.014,3.127-6.913,3.261-7.12c0.138-0.215,0.493-0.215,0.631,0   c0.133,0.207,3.261,5.106,3.261,7.12C15.297,61.366,13.692,63.099,11.72,63.099z M11.72,53.025   c-1.008,1.641-2.826,4.878-2.826,6.212c0,1.716,1.268,3.111,2.826,3.111s2.827-1.396,2.827-3.111   C14.547,57.902,12.728,54.666,11.72,53.025z"/></g><g><path d="M76.311,65.295H35.674c-1.682,0-3.051-1.368-3.051-3.051V32.913c0-1.682,1.369-3.051,3.051-3.051h40.636   c0.207,0,0.375,0.168,0.375,0.375V64.92C76.686,65.127,76.518,65.295,76.311,65.295z M35.674,30.612   c-1.269,0-2.301,1.032-2.301,2.301v29.332c0,1.269,1.032,2.301,2.301,2.301h40.261V30.612H35.674z"/></g><g><path d="M85.591,65.295h-7.4c-0.207,0-0.375-0.168-0.375-0.375V30.237c0-0.207,0.168-0.375,0.375-0.375h7.4   c3.157,0,5.727,2.569,5.727,5.728v23.979C91.317,62.726,88.748,65.295,85.591,65.295z M78.565,64.545h7.025   c2.744,0,4.977-2.232,4.977-4.977V35.589c0-2.745-2.232-4.978-4.977-4.978h-7.025V64.545z"/></g><g><path d="M89.525,50.125c-0.138,0-0.25-0.112-0.25-0.25v-2.25c0-0.138,0.112-0.25,0.25-0.25s0.25,0.112,0.25,0.25v2.25   C89.775,50.013,89.663,50.125,89.525,50.125z"/></g><g><path d="M89.525,46.125c-0.138,0-0.25-0.112-0.25-0.25V35.589c0-2.032-1.653-3.685-3.685-3.685h-1.216   c-0.138,0-0.25-0.112-0.25-0.25s0.112-0.25,0.25-0.25h1.216c2.308,0,4.185,1.877,4.185,4.185v10.286   C89.775,46.013,89.663,46.125,89.525,46.125z"/></g><g><path d="M77.801,72.962H36.359c-0.207,0-0.375-0.168-0.375-0.375v-1.732c0-0.944,0.768-1.713,1.712-1.713h0.286v-1.728   c0-0.207,0.168-0.375,0.375-0.375h37.158c0.207,0,0.375,0.168,0.375,0.375v1.728h0.572c0.944,0,1.713,0.769,1.713,1.713v1.732   C78.176,72.794,78.008,72.962,77.801,72.962z M36.734,72.212h40.691v-1.357c0-0.531-0.432-0.963-0.963-0.963h-0.947   c-0.207,0-0.375-0.168-0.375-0.375v-1.728H38.733v1.728c0,0.207-0.168,0.375-0.375,0.375h-0.661c-0.531,0-0.962,0.432-0.962,0.963   V72.212z"/></g><g><path d="M74.099,70.167c-0.138,0-0.25-0.112-0.25-0.25v-0.836h-6.239c-0.138,0-0.25-0.112-0.25-0.25s0.112-0.25,0.25-0.25h6.489   c0.138,0,0.25,0.112,0.25,0.25v1.086C74.349,70.055,74.236,70.167,74.099,70.167z"/></g><g><path d="M66.369,69.081h-1.326c-0.138,0-0.25-0.112-0.25-0.25s0.112-0.25,0.25-0.25h1.326c0.138,0,0.25,0.112,0.25,0.25   S66.507,69.081,66.369,69.081z"/></g><g><path d="M31.222,62.26h-2.425c-0.944,0-1.712-0.769-1.712-1.714V34.768c0-0.945,0.768-1.713,1.712-1.713h2.425   c0.207,0,0.375,0.168,0.375,0.375v28.455C31.597,62.092,31.429,62.26,31.222,62.26z M28.797,33.805   c-0.531,0-0.962,0.432-0.962,0.963v25.778c0,0.531,0.432,0.964,0.962,0.964h2.05V33.805H28.797z"/></g><g><path d="M25.716,52.06h-3.88c-0.207,0-0.375-0.168-0.375-0.375v-1.094H12.9c-0.207,0-0.375-0.167-0.375-0.375v-5.175   c0-0.207,0.168-0.375,0.375-0.375h8.561v-1.094c0-0.207,0.168-0.375,0.375-0.375h3.88c0.207,0,0.375,0.168,0.375,0.375v8.112   C26.091,51.892,25.923,52.06,25.716,52.06z M22.211,51.31h3.13v-7.362h-3.13v1.094c0,0.207-0.168,0.375-0.375,0.375h-8.561v4.425   h8.561c0.207,0,0.375,0.168,0.375,0.375V51.31z"/></g><g><path d="M23.082,46.416h-3.865c-0.138,0-0.25-0.112-0.25-0.25s0.112-0.25,0.25-0.25h3.615v-1.219c0-0.138,0.112-0.25,0.25-0.25   h1.045c0.138,0,0.25,0.112,0.25,0.25s-0.112,0.25-0.25,0.25h-0.795v1.219C23.332,46.304,23.22,46.416,23.082,46.416z"/></g><g><path d="M17.896,46.416h-0.948c-0.138,0-0.25-0.112-0.25-0.25s0.112-0.25,0.25-0.25h0.948c0.138,0,0.25,0.112,0.25,0.25   S18.034,46.416,17.896,46.416z"/></g><g><path d="M71.986,35.562H38.358c-0.138,0-0.25-0.112-0.25-0.25s0.112-0.25,0.25-0.25h33.628c0.138,0,0.25,0.112,0.25,0.25   S72.124,35.562,71.986,35.562z"/></g><g><path d="M71.986,40.383H38.358c-0.138,0-0.25-0.112-0.25-0.25s0.112-0.25,0.25-0.25h33.628c0.138,0,0.25,0.112,0.25,0.25   S72.124,40.383,71.986,40.383z"/></g><g><path d="M71.986,45.204H38.358c-0.138,0-0.25-0.112-0.25-0.25s0.112-0.25,0.25-0.25h33.628c0.138,0,0.25,0.112,0.25,0.25   S72.124,45.204,71.986,45.204z"/></g><g><path d="M71.986,50.027H38.358c-0.138,0-0.25-0.112-0.25-0.25s0.112-0.25,0.25-0.25h33.628c0.138,0,0.25,0.112,0.25,0.25   S72.124,50.027,71.986,50.027z"/></g><g><path d="M71.986,54.849H38.358c-0.138,0-0.25-0.112-0.25-0.25s0.112-0.25,0.25-0.25h33.628c0.138,0,0.25,0.112,0.25,0.25   S72.124,54.849,71.986,54.849z"/></g><g><path d="M71.986,59.669H38.358c-0.138,0-0.25-0.112-0.25-0.25s0.112-0.25,0.25-0.25h33.628c0.138,0,0.25,0.112,0.25,0.25   S72.124,59.669,71.986,59.669z"/></g><g><path d="M12.123,61.679c-0.109,0-0.208-0.071-0.24-0.181c-0.038-0.133,0.039-0.271,0.171-0.31c0.536-0.154,0.915-0.445,1.127-0.863   c0.47-0.93,0.007-2.21,0.002-2.223c-0.048-0.13,0.018-0.273,0.147-0.321c0.131-0.049,0.273,0.019,0.321,0.147   c0.022,0.061,0.543,1.494-0.024,2.619c-0.277,0.55-0.76,0.927-1.436,1.121C12.168,61.676,12.146,61.679,12.123,61.679z"/></g></svg>