<svg xmlns:dc="http://purl.org/dc/elements/1.1/" xmlns:cc="http://creativecommons.org/ns#" xmlns:rdf="http://www.w3.org/1999/02/22-rdf-syntax-ns#" xmlns:svg="http://www.w3.org/2000/svg" xmlns="http://www.w3.org/2000/svg" xmlns:sodipodi="http://sodipodi.sourceforge.net/DTD/sodipodi-0.dtd" xmlns:inkscape="http://www.inkscape.org/namespaces/inkscape" version="1.1" enable-background="new 0 0 32 32" xml:space="preserve" width="28" height="13"><rect id="backgroundrect" width="100%" height="100%" x="0" y="0" fill="none" stroke="none" style="" class=""/><g class="currentLayer" style=""><title>Layer 1</title><path style="" d="m19.5,5 c-0.16599999368190765,-0.22100000083446503 -0.4790000021457672,-0.26600000262260437 -0.699999988079071,-0.10000000149011612 c-0.22100000083446503,0.16500000655651093 -0.26600000262260437,0.4790000021457672 -0.10000000149011612,0.6990000009536743 c0.39899998903274536,0.5339999794960022 0.39899998903274536,1.2669999599456787 0,1.8009999990463257 c-0.16599999368190765,0.22100000083446503 -0.12099999934434891,0.5339999794960022 0.10000000149011612,0.6990000009536743 c0.22200000286102295,0.16599999368190765 0.5339999794960022,0.12099999934434891 0.699999988079071,-0.10000000149011612 c0.6660000085830688,-0.8880000114440918 0.6660000085830688,-2.109999895095825 0,-2.999000072479248 z" stroke-miterlimit="10" stroke="none" id="svg_1" class=""/><path style="" d="m21.100000381469727,3.8000001907348633 c-0.16599999368190765,-0.22100000083446503 -0.4790000021457672,-0.26600000262260437 -0.6990000009536743,-0.10000000149011612 c-0.22100000083446503,0.16500000655651093 -0.26600000262260437,0.4790000021457672 -0.10100000351667404,0.699999988079071 c0.9340000152587891,1.24399995803833 0.9340000152587891,2.9549999237060547 0,4.198999881744385 c-0.16500000655651093,0.22200000286102295 -0.11999999731779099,0.5350000262260437 0.10100000351667404,0.699999988079071 c0.22100000083446503,0.16599999368190765 0.5329999923706055,0.12099999934434891 0.6990000009536743,-0.10000000149011612 c1.2000000476837158,-1.5989999771118164 1.2000000476837158,-3.7990000247955322 0,-5.39900016784668 z" stroke-miterlimit="10" stroke="none" id="svg_2" class=""/><path style="" d="M22.700000762939453,2.6000003814697266 C22.534000396728516,2.378999710083008 22.22100067138672,2.3339996337890625 22,2.5 c-0.22100000083446503,0.16599999368190765 -0.26600000262260437,0.4790000021457672 -0.10000000149011612,0.699999988079071 c1.4670000076293945,1.9550000429153442 1.4670000076293945,4.644999980926514 0,6.599999904632568 c-0.16599999368190765,0.22100000083446503 -0.12099999934434891,0.5339999794960022 0.10000000149011612,0.699999988079071 c0.22100000083446503,0.16599999368190765 0.5339999794960022,0.12099999934434891 0.699999988079071,-0.10000000149011612 c1.7339999675750732,-2.311000108718872 1.7339999675750732,-5.488999843597412 0,-7.800000190734863 z" stroke-miterlimit="10" stroke="none" id="svg_3" class=""/><path style="" d="m24.299999237060547,1.3999996185302734 c-0.16500000655651093,-0.22200000286102295 -0.4790000021457672,-0.26600000262260437 -0.699999988079071,-0.10100000351667404 c-0.22100000083446503,0.16599999368190765 -0.26600000262260437,0.4790000021457672 -0.10000000149011612,0.699999988079071 c2,2.6670000553131104 2,6.333000183105469 0,9 c-0.16599999368190765,0.22100000083446503 -0.12099999934434891,0.5339999794960022 0.10000000149011612,0.699999988079071 c0.22100000083446503,0.16500000655651093 0.5350000262260437,0.12099999934434891 0.699999988079071,-0.10100000351667404 c2.2660000324249268,-3.0199999809265137 2.2660000324249268,-7.176000118255615 0,-10.197999954223633 z" stroke-miterlimit="10" stroke="none" id="svg_4" class=""/><path style="" d="M25.899999618530273,0.19999980926513672 C25.733999252319336,-0.020999908447265625 25.42099952697754,-0.06599998474121094 25.200000762939453,0.0989999771118164 c-0.22200000286102295,0.16599999368190765 -0.2669999897480011,0.4790000021457672 -0.10100000351667404,0.699999988079071 c2.5329999923706055,3.378000020980835 2.5329999923706055,8.022000312805176 0,11.399999618530273 c-0.16599999368190765,0.22100000083446503 -0.12099999934434891,0.5339999794960022 0.10100000351667404,0.699999988079071 c0.22100000083446503,0.16500000655651093 0.5339999794960022,0.11999999731779099 0.699999988079071,-0.10100000351667404 c2.799999952316284,-3.7320001125335693 2.799999952316284,-8.86400032043457 0,-12.597999572753906 z" stroke-miterlimit="10" stroke="none" id="svg_5" class=""/><path style="" d="m15,3.5 h-5 v2.5 H8.20300006866455 C7.817999839782715,6 7.439000129699707,5.8979997634887695 7.104999542236328,5.706000328063965 C5.889999866485596,5.003999710083008 4.357999801635742,5.178000450134277 3.3309998512268066,6.133999824523926 C3.239999771118164,6.218999862670898 3.1430001258850098,6.295000076293945 3.0390000343322754,6.36299991607666 C2.0250000953674316,7.027000427246094 0.6649999618530273,6.743999481201172 0,5.729999542236328 v1.4110000133514404 c1.2350000143051147,0.8669999837875366 2.9079999923706055,0.7519999742507935 4.013000011444092,-0.2750000059604645 c0.7059999704360962,-0.6570000052452087 1.7580000162124634,-0.7760000228881836 2.5929999351501465,-0.2939999997615814 c0.4860000014305115,0.2800000011920929 1.0369999408721924,0.42800000309944153 1.5980000495910645,0.42800000309944153 H10 V9.5 h5 c0.36399999260902405,0 0.6990000009536743,0.19699999690055847 0.875,0.515999972820282 c0.1599999964237213,0.28999999165534973 0.5249999761581421,0.3959999978542328 0.8149999976158142,0.23399999737739563 C16.8799991607666,10.145000457763672 17,9.943000793457031 17,9.72599983215332 v-6.451000213623047 c0,-0.3310000002384186 -0.26899999380111694,-0.6000000238418579 -0.6000000238418579,-0.6000000238418579 c-0.21899999678134918,0 -0.41999998688697815,0.11800000071525574 -0.5249999761581421,0.3100000023841858 C15.698999404907227,3.3030004501342773 15.36400032043457,3.5 15,3.5 z" stroke-miterlimit="10" stroke="none" id="svg_6" class=""/></g></svg>